<svg width="6" height="13" viewBox="0 0 6 13" fill="none" xmlns="http://www.w3.org/2000/svg">
<path d="M5.00446 12.9999C4.87639 13.0004 4.74984 12.9698 4.63412 12.9103C4.51841 12.8509 4.41646 12.7641 4.33577 12.6564L0.195025 7.08549C0.068932 6.91936 0 6.71097 0 6.49591C0 6.28085 0.068932 6.07246 0.195025 5.90632L4.48151 0.335417C4.62703 0.145805 4.83613 0.0265651 5.06282 0.00392888C5.28952 -0.0187073 5.51523 0.0571145 5.6903 0.214714C5.86537 0.372313 5.97547 0.598781 5.99637 0.844297C6.01727 1.08981 5.94726 1.33426 5.80175 1.52388L1.96963 6.50055L5.67315 11.4772C5.77799 11.6135 5.84458 11.7795 5.86505 11.9555C5.88552 12.1315 5.85902 12.3101 5.78867 12.4703C5.71833 12.6305 5.60708 12.7655 5.46811 12.8594C5.32913 12.9532 5.16823 13.002 5.00446 12.9999Z" fill="#F8AD1D"/>
</svg>
