<svg width="31" height="23" viewBox="0 0 31 23" fill="none" xmlns="http://www.w3.org/2000/svg">
<path d="M18.2849 0.029705C15.1477 0.253353 12.2527 1.66586 10.2238 3.96118C9.29114 5.02055 8.63099 6.0917 8.07985 7.43947L7.82548 8.05744L7.35308 8.09864C5.51193 8.26343 4.01599 8.94614 3.59204 9.82307L3.44669 10.1173V12.8894V15.6614L2.96217 15.7615C2.25357 15.9086 1.68427 16.2147 1.13919 16.7385C0.200443 17.6448 -0.187168 18.8808 0.0853714 20.1167C0.363967 21.3997 1.51469 22.5591 2.8471 22.8946C3.56782 23.0771 4.53079 23.0123 5.22122 22.7239C5.51193 22.6062 5.52404 22.6062 5.85715 22.7122C6.44462 22.8946 6.60209 22.9182 7.46815 22.977C8.50986 23.0418 9.3941 22.9711 10.3207 22.7475C11.4654 22.465 12.3194 22.0765 12.8099 21.6116L13.0582 21.3821L13.6275 21.6763C17.2675 23.5538 21.7795 23.4243 25.3043 21.335C26.4187 20.6699 27.5937 19.6635 28.3992 18.6806C30.3372 16.3147 31.2457 13.3367 30.9429 10.3763C30.4826 5.96811 27.4604 2.18966 23.1785 0.677103C21.6947 0.147415 19.8959 -0.0880032 18.2849 0.029705ZM21.2889 0.841896C21.6584 0.918406 21.9975 0.994917 22.0399 1.02434C22.1065 1.06554 22.0399 1.33627 21.6705 2.43096L21.2223 3.7905H19.1571H17.0979L16.6618 2.47805C16.4196 1.76002 16.2257 1.14205 16.2257 1.10085C16.2257 1.02434 16.2681 1.00669 16.892 0.877209C17.7035 0.706532 18.1154 0.677103 19.3751 0.694759C20.3623 0.712416 20.756 0.741844 21.2889 0.841896ZM16.038 2.76055C16.3166 3.58451 16.577 4.30842 16.6194 4.36139C16.6921 4.45555 16.8314 4.46732 17.7641 4.48498L18.83 4.50264V6.36832L18.824 8.234L17.3159 9.29338C16.4801 9.87604 15.7594 10.3586 15.711 10.3704C15.6564 10.3822 15.0811 10.2762 14.427 10.135C13.2399 9.88192 13.2399 9.88192 13.1067 9.67593C12.9734 9.46994 12.4526 8.96968 12.3678 8.96968C12.3375 8.96968 12.2709 8.92848 12.2103 8.88728C12.1074 8.81077 12.1074 8.78135 12.2648 8.21046C12.4284 7.63369 12.4284 7.61603 12.3194 7.49832C12.2588 7.43358 11.6531 7.02749 10.9748 6.60374C10.2965 6.17999 9.7272 5.81509 9.71509 5.79155C9.67269 5.72681 10.2783 4.90285 10.775 4.34962C11.5986 3.4256 12.8947 2.44273 14.003 1.89539C14.5723 1.61877 15.3778 1.27153 15.4747 1.26565C15.505 1.25976 15.7655 1.93659 16.038 2.76055ZM23.6025 1.54815C24.8864 2.09549 26.025 2.85471 27.0304 3.8317C27.5513 4.33784 28.3992 5.34425 28.5809 5.66795C28.6475 5.79155 28.708 5.74446 26.5943 7.07457C26.237 7.3041 25.9584 7.52186 25.9403 7.5866C25.9221 7.65134 26.019 8.10452 26.1522 8.58713C26.2915 9.07562 26.4005 9.49937 26.4005 9.53468C26.4005 9.63474 22.7122 10.4116 22.5487 10.3469C22.476 10.3174 21.7613 9.82895 20.9619 9.26395L19.5023 8.234L19.4962 6.36243V4.49675H20.4592C20.9922 4.49675 21.4948 4.47321 21.5796 4.4379C21.7129 4.39081 21.7855 4.22013 22.2519 2.8194C22.5487 1.93659 22.803 1.25976 22.8454 1.25976C22.8878 1.25976 23.227 1.38924 23.6025 1.54815ZM10.4479 7.05691C11.0414 7.43358 11.5562 7.76317 11.5926 7.79259C11.6531 7.83968 11.6471 7.92796 11.5744 8.17515C11.526 8.35171 11.4593 8.49885 11.4351 8.49885C11.4048 8.49885 11.1565 8.43411 10.884 8.3576C10.3813 8.22223 9.78171 8.12218 9.00043 8.05155C8.52197 8.01035 8.53409 8.07509 8.88536 7.26291C9.09128 6.78618 9.30931 6.38009 9.35776 6.38009C9.36987 6.38009 9.86044 6.68613 10.4479 7.05691ZM29.2895 6.95098C29.9314 8.28697 30.3372 10.0349 30.3372 11.4533V11.8123L29.4772 11.7711C28.9988 11.7476 28.4052 11.7182 28.1569 11.7005L27.7027 11.6652L27.1758 9.74656C26.776 8.30463 26.661 7.81614 26.7215 7.78082C26.7579 7.75728 27.2727 7.43358 27.8541 7.0628C28.4355 6.69202 28.9382 6.38597 28.9624 6.38597C28.9927 6.38009 29.138 6.63905 29.2895 6.95098ZM9.89678 8.82255C11.4896 9.06385 12.6525 9.74067 12.6525 10.4352C12.6525 11.0237 11.4291 11.7182 9.92706 11.9771C9.33959 12.0831 7.43787 12.0831 6.86857 11.983C5.02741 11.6534 3.86458 10.8648 4.17346 10.1468C4.27036 9.92901 4.68826 9.54645 5.02742 9.38166C6.26898 8.76369 8.09197 8.5577 9.89678 8.82255ZM20.8892 10.0232C21.5372 10.4822 22.0763 10.8766 22.0884 10.906C22.0944 10.9295 21.8582 11.6829 21.5554 12.5833C21.2586 13.4779 21.0103 14.2254 21.0103 14.243C21.0103 14.2548 20.1806 14.2666 19.1631 14.2666H17.322L16.7708 12.6128C16.468 11.7064 16.2257 10.9354 16.2379 10.906C16.25 10.8766 16.9101 10.3881 17.7096 9.82307L19.1631 8.80489L19.4357 8.99911C19.5871 9.10505 20.2412 9.56411 20.8892 10.0232ZM26.8548 11.1296C27.1213 12.1184 27.1697 12.2479 27.2908 12.2891C27.3393 12.3067 28.0297 12.3538 28.8292 12.395C30.1252 12.4597 30.2767 12.4774 30.2767 12.5657C30.2767 12.6186 30.2221 12.9659 30.1555 13.3367C29.9314 14.6138 29.453 15.8792 28.7868 16.9798C28.3992 17.6095 27.8601 18.3393 27.7935 18.3158C27.7693 18.304 27.2908 17.8979 26.7336 17.4153C26.1765 16.9268 25.6677 16.5148 25.6011 16.4854C25.5042 16.4501 25.2619 16.5619 24.5715 16.9503C23.8084 17.3741 23.6509 17.4447 23.5843 17.38C23.5419 17.3329 23.0816 16.6796 22.5547 15.9263L21.6099 14.5608L22.1974 12.8011L22.7849 11.0472L24.2445 10.7353C25.0439 10.5646 25.8555 10.394 26.0372 10.3528C26.6428 10.2115 26.5883 10.1585 26.8548 11.1296ZM14.5057 10.8295C15.0326 10.9413 15.4869 11.059 15.5171 11.0826C15.5414 11.1061 15.82 11.8947 16.1349 12.8364L16.7103 14.555L15.7049 15.9969C15.1538 16.7914 14.6874 17.4447 14.6692 17.4447C14.6511 17.4447 14.3422 17.2799 13.9788 17.0798L13.3187 16.7149V13.6663C13.3187 10.7471 13.3247 10.6176 13.4277 10.6176C13.4882 10.6176 13.9728 10.7118 14.5057 10.8295ZM5.03347 12.1419C6.54152 12.807 9.06099 12.9306 10.8961 12.4362C11.4291 12.2891 12.1679 11.9713 12.4526 11.7594L12.6525 11.6122V12.3538C12.6525 13.1954 12.6161 13.3014 12.2224 13.6427C11.6713 14.1312 10.5206 14.502 9.19424 14.6197C7.35914 14.7845 5.35446 14.3607 4.53079 13.6368C4.14923 13.3014 4.1129 13.1895 4.1129 12.3597V11.624L4.38543 11.8006C4.53079 11.8947 4.82755 12.0536 5.03347 12.1419ZM4.79727 14.5962C5.22728 14.8139 6.06912 15.0729 6.68688 15.1729C8.75212 15.5202 10.9809 15.2082 12.3557 14.3843L12.6525 14.2077V14.9493C12.6525 15.7732 12.6101 15.8968 12.2588 16.2029C11.7682 16.6207 10.8476 16.9562 9.74537 17.121C9.09128 17.2211 7.78914 17.2328 7.18956 17.1504C6.82012 17.0975 6.7535 17.068 6.55363 16.8503C6.05095 16.3147 5.25756 15.8851 4.49445 15.7379L4.1129 15.6614V14.9316V14.1959L4.31276 14.3195C4.41572 14.3902 4.63375 14.5138 4.79727 14.5962ZM21.0467 14.9611C21.1193 15.0081 23.0089 17.7331 23.0089 17.7919C23.0089 17.8096 22.6153 18.0509 22.1308 18.3158C21.507 18.6689 21.2405 18.8454 21.2223 18.9337C21.2041 19.0043 21.3374 19.7224 21.5191 20.5346C21.7189 21.435 21.8219 22.0177 21.7855 22.0412C21.7553 22.0589 21.4524 22.1295 21.1133 22.1884C20.2351 22.3473 18.0911 22.3473 17.2129 22.1884C16.8738 22.1295 16.571 22.0589 16.5346 22.0412C16.4922 22.0118 16.5831 21.4998 16.8011 20.5051C17.1221 19.0514 17.1282 18.9985 17.0252 18.8631C16.9646 18.7866 16.5588 18.5217 16.1167 18.2746C15.6746 18.0332 15.3173 17.8096 15.3173 17.7802C15.3173 17.7507 15.7594 17.0975 16.2984 16.3206L17.2796 14.914H19.1268C20.1443 14.914 21.0103 14.9375 21.0467 14.9611ZM4.50656 16.4148C5.10009 16.5619 5.50587 16.7914 5.94799 17.2152C7.16533 18.3923 7.17745 20.2109 5.97827 21.4233C5.38474 22.0295 4.65192 22.3296 3.77979 22.3296C1.86596 22.3296 0.406362 20.6758 0.721296 18.8572C1.01806 17.1387 2.79865 15.991 4.50656 16.4148ZM12.6525 17.4977C12.6525 17.8861 12.6282 18.2687 12.5979 18.3452C12.392 18.869 11.2595 19.434 9.99368 19.6517C9.36382 19.7577 8.09197 19.8283 7.7952 19.7753L7.58323 19.74L7.54689 19.1927C7.52872 18.8925 7.45604 18.4747 7.38942 18.2687C7.31674 18.0568 7.26224 17.8743 7.26224 17.8567C7.26224 17.839 7.71041 17.8331 8.24943 17.8449C9.35776 17.8626 10.1148 17.7802 10.9748 17.533C11.4836 17.3917 12.1861 17.0857 12.4405 16.8915C12.5071 16.8444 12.5798 16.7973 12.6101 16.7973C12.6343 16.7973 12.6525 17.1151 12.6525 17.4977ZM26.449 18.0509C26.9214 18.4688 27.309 18.8337 27.309 18.8572C27.309 19.022 26.0553 20.0696 25.2498 20.5758C24.2263 21.229 22.5547 21.9588 22.4941 21.7823C22.3972 21.4998 21.9248 19.1809 21.9612 19.1633C21.9854 19.1574 22.7849 18.716 23.7297 18.1804C24.6805 17.6507 25.48 17.2328 25.5163 17.2505C25.5526 17.274 25.9705 17.633 26.449 18.0509ZM13.9728 17.8331C14.2937 18.0156 14.96 18.3923 15.4505 18.663C15.9411 18.9337 16.3529 19.175 16.365 19.1986C16.3832 19.2339 15.9774 21.1643 15.8442 21.694L15.8018 21.8529L15.3597 21.7058C14.8267 21.5174 13.9243 21.1113 13.5791 20.8995L13.3187 20.7405V19.1221C13.3187 18.2334 13.3308 17.5036 13.355 17.5036C13.3732 17.5036 13.6518 17.6507 13.9728 17.8331ZM12.5495 20.9407C12.3072 21.3409 11.3261 21.8235 10.1088 22.1354C9.18818 22.3767 6.91096 22.3944 6.31138 22.1707C6.25687 22.1472 6.34166 22.0236 6.56575 21.7882C6.77167 21.5704 6.99575 21.2467 7.15322 20.9289L7.41365 20.4169L8.47352 20.411C10.1451 20.4051 11.5138 20.0814 12.4102 19.487L12.6222 19.3398L12.6403 20.0461C12.6525 20.6405 12.6403 20.7817 12.5495 20.9407Z" fill="black"/>
</svg>
