<svg width="12" height="12" viewBox="0 0 12 12" fill="none" xmlns="http://www.w3.org/2000/svg">
<path fill-rule="evenodd" clip-rule="evenodd" d="M2.25883 10.0589C3.24243 10.9659 4.55651 11.52 6 11.52C7.44349 11.52 8.75757 10.9659 9.74117 10.0589C9.60964 9.91575 9.48498 9.76622 9.36771 9.61082L9.01457 9.86738L8.73243 9.47906L9.09402 9.21635C8.85574 8.84184 8.65786 8.43911 8.50649 8.01431L8.06002 8.15938L7.9117 7.70287L8.36373 7.556C8.2507 7.13388 8.18255 6.6934 8.16471 6.24H7.68V5.76H8.16471C8.18255 5.3066 8.2507 4.86612 8.36373 4.444L7.9117 4.29713L8.06002 3.84062L8.50649 3.98569C8.65786 3.56089 8.85574 3.15816 9.09402 2.78365L8.73243 2.52094L9.01457 2.13261L9.36771 2.38918C9.48498 2.23377 9.60964 2.08425 9.74117 1.94114C8.75757 1.03407 7.44349 0.48 6 0.48C4.55651 0.48 3.24243 1.03407 2.25883 1.94114C2.39035 2.08425 2.51502 2.23377 2.63229 2.38918L2.98543 2.13261L3.26757 2.52094L2.90598 2.78365C3.14426 3.15816 3.34214 3.56089 3.49351 3.98569L3.93998 3.84062L4.0883 4.29713L3.63627 4.444C3.7493 4.86612 3.81745 5.3066 3.83529 5.76H4.32V6.24H3.83529C3.81745 6.6934 3.7493 7.13388 3.63627 7.556L4.0883 7.70287L3.93998 8.15938L3.49351 8.01431C3.34214 8.43911 3.14426 8.84184 2.90598 9.21635L3.26757 9.47906L2.98543 9.86738L2.63229 9.61082C2.51502 9.76622 2.39035 9.91575 2.25883 10.0589ZM1.92 9.71812C1.02547 8.73709 0.48 7.43224 0.48 6C0.48 4.56776 1.02547 3.26291 1.92 2.28188C2.03374 2.40662 2.14183 2.53658 2.24388 2.67138L1.82045 2.97903L2.10258 3.36735L2.5168 3.06641C2.72648 3.39998 2.90146 3.75757 3.03668 4.13412L2.57045 4.2856L2.71878 4.74211L3.17896 4.59259C3.27756 4.96762 3.33769 5.35825 3.35488 5.76H2.88V6.24H3.35488C3.33769 6.64175 3.27756 7.03238 3.17896 7.40741L2.71878 7.25789L2.57045 7.7144L3.03668 7.86588C2.90146 8.24243 2.72648 8.60002 2.5168 8.93359L2.10258 8.63265L1.82045 9.02097L2.24388 9.32861C2.14183 9.46342 2.03374 9.59338 1.92 9.71812ZM10.08 9.71812C10.9745 8.73709 11.52 7.43224 11.52 6C11.52 4.56776 10.9745 3.26291 10.08 2.28188C9.96626 2.40662 9.85817 2.53658 9.75612 2.67138L10.1796 2.97903L9.89742 3.36735L9.4832 3.06641C9.27352 3.39998 9.09854 3.75757 8.96332 4.13412L9.42955 4.2856L9.28122 4.74211L8.82103 4.59259C8.72244 4.96762 8.66231 5.35825 8.64512 5.76H9.12V6.24H8.64512C8.66231 6.64175 8.72244 7.03238 8.82103 7.40741L9.28122 7.25789L9.42955 7.7144L8.96332 7.86588C9.09854 8.24243 9.27352 8.60002 9.4832 8.93359L9.89742 8.63265L10.1796 9.02097L9.75612 9.32861C9.85817 9.46342 9.96626 9.59338 10.08 9.71812ZM6 12C9.31371 12 12 9.31371 12 6C12 2.68629 9.31371 0 6 0C2.68629 0 0 2.68629 0 6C0 9.31371 2.68629 12 6 12Z" fill="black"/>
</svg>
