<svg width="13" height="12" viewBox="0 0 13 12" fill="none" xmlns="http://www.w3.org/2000/svg">
<path d="M12.0922 5.36957C11.9799 4.2984 11.5797 3.27762 10.9341 2.4155C10.8069 2.24531 10.6709 2.08192 10.5265 1.92603C9.96567 1.31842 9.28506 0.833584 8.52756 0.502093C7.77006 0.170602 6.95209 -0.000354475 6.12523 5.51831e-07C5.97681 5.51831e-07 5.82973 0.00535944 5.68399 0.0160772C4.20375 0.123796 2.81611 0.776876 1.7897 1.84889C0.763293 2.92091 0.17112 4.33561 0.127818 5.81914C0.125808 5.87914 0.12485 5.93942 0.124945 6C0.124206 7.5152 0.697045 8.97451 1.72832 10.0846C2.75959 11.1947 4.17284 11.8733 5.68399 11.9839C5.82983 11.9945 5.97691 11.9999 6.12523 12C6.95209 12.0004 7.77006 11.8294 8.52756 11.4979C9.28506 11.1664 9.96567 10.6816 10.5265 10.074C10.6709 9.91808 10.8069 9.75469 10.9341 9.5845C11.7073 8.55198 12.1252 7.2968 12.1252 6.00689V6C12.1253 5.78942 12.1142 5.57899 12.0922 5.36957ZM10.5265 2.92909C11.0555 3.68392 11.3801 4.56288 11.4687 5.48039C10.8466 5.58345 10.2122 5.66689 9.56562 5.73072C9.61503 4.72487 9.94816 3.75355 10.5265 2.92909ZM6.12523 0.631579C6.87889 0.631286 7.62413 0.790026 8.31224 1.09743C9.00036 1.40483 9.61586 1.85397 10.1185 2.4155C9.38769 3.39146 8.97332 4.56786 8.93117 5.78641C8.47442 5.82201 8.01279 5.84698 7.54629 5.86134C7.53112 4.5001 7.25027 3.15492 6.71949 1.90134C6.53471 1.4642 6.32054 1.04007 6.07844 0.631867C6.09394 0.631579 6.10973 0.631579 6.12523 0.631579ZM5.36447 0.685551C6.35651 2.23611 6.89361 4.03391 6.91471 5.87455C6.8059 5.87569 6.69681 5.87627 6.58743 5.87627C6.16227 5.87627 5.74054 5.86756 5.32227 5.85014C5.2637 4.5066 4.41423 3.25952 2.91624 2.32421C2.77298 2.23493 2.62552 2.14938 2.47385 2.06756C3.27369 1.32257 4.28243 0.840288 5.36447 0.685551ZM2.02083 2.54297C2.2149 2.64201 2.40188 2.74766 2.58179 2.85991C3.87337 3.66632 4.61461 4.71043 4.68811 5.81741C3.38227 5.73771 2.08333 5.56977 0.80016 5.31473C0.931264 4.29243 1.35518 3.32985 2.02083 2.54297ZM0.756526 6C0.756526 5.98364 0.756526 5.96698 0.756813 5.95062C2.04439 6.2032 3.34737 6.3696 4.6571 6.44871C4.49145 7.45636 3.76915 8.39885 2.58179 9.1401C2.40208 9.25234 2.21509 9.35799 2.02083 9.45703C1.20334 8.49075 0.755309 7.2657 0.756526 6ZM5.36447 11.3144C4.28243 11.1597 3.27369 10.6774 2.47385 9.93244C2.62543 9.85091 2.77289 9.76536 2.91624 9.67579C4.2905 8.8177 5.11873 7.69751 5.29155 6.48115C5.72131 6.49895 6.15327 6.50785 6.58743 6.50785C6.69279 6.50785 6.79786 6.50727 6.90265 6.50612C6.81728 8.21548 6.28707 9.87292 5.36447 11.3144ZM6.12523 11.3684C6.10973 11.3684 6.09394 11.3684 6.07844 11.3681C6.32054 10.9599 6.53471 10.5358 6.71949 10.0987C7.20396 8.9552 7.48036 7.73441 7.53566 6.49378C8.00734 6.47971 8.47614 6.45502 8.94207 6.41971C9.02136 7.5659 9.42987 8.66483 10.1185 9.5845C9.61586 10.146 9.00035 10.5952 8.31224 10.9026C7.62413 11.21 6.87889 11.3687 6.12523 11.3684ZM10.5265 9.07091C9.96693 8.27328 9.6366 7.33759 9.57136 6.36545C10.2187 6.30344 10.859 6.22067 11.4922 6.11713C11.4705 7.17572 11.1343 8.20392 10.5265 9.07091V9.07091Z" fill="#2D3E50"/>
</svg>
