<svg width="12" height="12" viewBox="0 0 12 12" fill="none" xmlns="http://www.w3.org/2000/svg">
<path d="M3.65925 11.4542L5.88675 6.08374L10.389 8.26596L10.4902 8.0161C11.6532 5.15139 10.732 2.24359 8.259 0.783688C8.244 0.497 8.02775 0.267867 7.76175 0.267867C7.647 0.267867 7.54225 0.312057 7.45775 0.383524C6.83425 0.129842 6.20575 0 5.58475 0C3.60725 0 1.90575 1.28342 1.033 3.43317L0.932 3.68249L5.43 5.86225L3.1105 11.4542H0V12H12V11.4542H3.65925ZM7.6595 1.06219C7.6605 1.06274 7.66125 1.06328 7.662 1.06383C8.747 1.59602 8.85575 3.96945 7.95775 6.49045L3.93425 4.54037C4.7275 2.77469 5.76125 1.46699 6.69325 1.07692C7.04825 0.927987 7.37375 0.92335 7.6595 1.06219ZM10.1298 7.5431L8.41375 6.7114C9.08575 4.83743 9.2205 3.05156 8.846 1.86198C10.3827 3.23486 10.903 5.38789 10.1298 7.5431ZM5.58475 0.545554C5.85225 0.545554 6.12175 0.572832 6.392 0.625477C5.379 1.11893 4.2945 2.49618 3.47675 4.31888L1.59625 3.40753C2.4125 1.60966 3.88725 0.545554 5.58475 0.545554Z" fill="black"/>
</svg>
