<svg width="12" height="12" viewBox="0 0 12 12" fill="none" xmlns="http://www.w3.org/2000/svg">
<path d="M10.6203 5.77892L6.901 2.84208C6.48108 2.39997 5.82121 2.39997 5.43129 2.84208L3.03176 5.36839C2.8518 5.55787 2.76181 5.77892 2.73182 5.99997L2.37189 8.52629L0.902179 7.67366C0.602237 7.48418 0.242308 7.57892 0.0923376 7.89471C-0.0876271 8.2105 0.0023552 8.58945 0.302296 8.74734L2.40188 10.0105C2.49187 10.0737 2.58185 10.1052 2.70183 10.1052C2.79181 10.1052 2.8518 10.0737 2.94178 10.0421C3.12174 9.97892 3.24172 9.82102 3.30171 9.63155L4.02157 7.29471L5.79122 8.08418L4.62145 10.0737C4.44148 10.3579 4.53147 10.7684 4.80141 10.9579C4.8914 11.021 5.01137 11.0526 5.13135 11.0526C5.34131 11.0526 5.52127 10.9579 5.64125 10.7684L7.14095 8.24208C7.32092 7.95787 7.23094 7.54734 6.96099 7.35787L5.22133 6.22102L6.901 4.42102L8.76064 5.52629L10.0804 6.53681C10.1704 6.59997 10.2603 6.63155 10.3503 6.63155C10.4703 6.63155 10.6203 6.56839 10.7103 6.44208C10.8602 6.2526 10.8302 5.93681 10.6203 5.77892Z" fill="black"/>
<path d="M10.9502 3.15784C11.5201 3.15784 12 3.6631 12 4.2631C12 4.8631 11.5201 5.36836 10.9502 5.36836C10.3803 5.36836 9.90039 4.8631 9.90039 4.2631C9.90039 3.6631 10.3803 3.15784 10.9502 3.15784Z" fill="black"/>
<path d="M8.10081 1.10526C8.10081 1.70526 7.6209 2.21053 7.05101 2.21053C6.48113 2.21053 6.00122 1.70526 6.00122 1.10526C6.00122 0.505263 6.48113 0 7.05101 0C7.6209 0 8.10081 0.505263 8.10081 1.10526Z" fill="black"/>
<path d="M12.0001 10.7368C11.6702 10.7368 11.4003 10.6421 11.2203 10.5474C10.9504 10.3895 10.6204 10.3895 10.3805 10.5474C10.2005 10.6421 9.93055 10.7368 9.60062 10.7368C9.27068 10.7368 9.00074 10.6421 8.82077 10.5474C8.55083 10.3895 8.22089 10.3895 7.98094 10.5474C7.80097 10.6421 7.53102 10.7368 7.20109 10.7368C6.87115 10.7368 6.60121 10.6421 6.42124 10.5474C6.1513 10.3895 5.82136 10.3895 5.58141 10.5474C5.40144 10.6421 5.1315 10.7368 4.80156 10.7368C4.47163 10.7368 4.20168 10.6421 4.02171 10.5474C3.75177 10.3895 3.42183 10.3895 3.18188 10.5474C3.00191 10.6421 2.73197 10.7368 2.40203 10.7368C2.0721 10.7368 1.80215 10.6421 1.62218 10.5474C1.35224 10.3895 1.0223 10.3895 0.782349 10.5474C0.602385 10.6421 0.332438 10.7368 0.00250244 10.7368V12H12.0001V10.7368Z" fill="black"/>
<path d="M3.60167 4.73682L3.00178 5.3684C2.82182 5.55787 2.73184 5.77892 2.70184 5.99997C2.85181 5.99997 4.20155 6.03155 4.20155 6.63155L4.02158 7.23155C4.20155 7.1684 4.35152 7.10524 4.50149 6.94734L5.10137 6.31576L3.60167 4.73682Z" fill="black"/>
<path d="M6.48104 3.06313C6.63101 2.77892 6.90096 2.84208 6.90096 2.84208C6.48104 2.39997 5.82117 2.39997 5.43125 2.84208L4.6814 3.63155L6.15111 5.2105L6.90096 4.42102C6.691 4.26313 6.00114 3.82102 6.48104 3.06313Z" fill="black"/>
</svg>
