<svg width="12" height="12" viewBox="0 0 12 12" fill="none" xmlns="http://www.w3.org/2000/svg">
<path d="M8.52632 0C9.44759 0 10.3311 0.347678 10.9826 0.966548C11.634 1.58542 12 2.42479 12 3.3V4.8C12 5.3328 11.7562 5.8116 11.3684 6.141V9C11.3684 9.37227 11.2469 9.73538 11.0207 10.0394C10.7945 10.3433 10.4747 10.5732 10.1053 10.6974V11.4C10.1053 11.5591 10.0387 11.7117 9.92028 11.8243C9.80183 11.9368 9.64119 12 9.47368 12H1.89474C1.72723 12 1.56659 11.9368 1.44814 11.8243C1.3297 11.7117 1.26316 11.5591 1.26316 11.4V10.698C0.893637 10.5738 0.573739 10.3438 0.34752 10.0397C0.1213 9.73562 -0.000113007 9.37237 7.89257e-08 9V2.4C7.89257e-08 1.76348 0.266165 1.15303 0.739941 0.702944C1.21372 0.252856 1.8563 0 2.52632 0H8.52632ZM4.10526 5.4H1.26316V9C1.26318 9.14696 1.31997 9.2888 1.42277 9.39862C1.52556 9.50844 1.66721 9.57861 1.82084 9.5958L1.89474 9.6H9.47368C9.62838 9.59998 9.77769 9.54603 9.89329 9.44837C10.0089 9.35072 10.0827 9.21615 10.1008 9.0702L10.1053 9V6.6H6.29305C6.21712 7.09979 5.95416 7.55685 5.55235 7.88743C5.15055 8.21801 4.63681 8.39999 4.10526 8.4H1.89474V7.2H4.10526C4.34077 7.19999 4.56783 7.11665 4.74216 6.96623C4.91649 6.81581 5.0256 6.6091 5.04821 6.3864L5.05263 6.3C5.05262 6.07627 4.96489 5.86057 4.80656 5.69495C4.64822 5.52933 4.43063 5.42568 4.19621 5.4042L4.10526 5.4ZM8.52632 1.2H2.52632C2.20764 1.1999 1.90069 1.31424 1.66702 1.5201C1.43335 1.72595 1.29022 2.00811 1.26632 2.31L1.26316 2.4V4.2H4.10526C4.52365 4.19992 4.93348 4.31264 5.2871 4.52506C5.64073 4.73748 5.92364 5.04088 6.10295 5.4H10.1053C10.26 5.39998 10.4093 5.34603 10.5249 5.24837C10.6405 5.15072 10.7143 5.01615 10.7324 4.8702L10.7368 4.8V3.3C10.7369 2.76296 10.5203 2.24631 10.1318 1.85628C9.74316 1.46624 9.21203 1.23246 8.64758 1.203L8.52632 1.2Z" fill="black"/>
</svg>
