<svg width="9" height="16" viewBox="0 0 9 16" fill="none" xmlns="http://www.w3.org/2000/svg">
<path d="M8.99973 14.2582C8.99808 14.1687 8.93826 14.0852 8.84869 14.0483C8.45796 13.8869 7.07684 13.0629 7.07684 12.2583V11.3536L8.37499 10.17C8.4228 10.1264 8.45051 10.0654 8.45048 10.0038C8.45044 8.80116 7.78107 7.51571 6.46097 6.18311C6.0656 5.78402 5.67253 5.44351 5.343 5.17846L8.13897 5.72474C8.2617 5.74873 8.38547 5.68858 8.43207 5.58234L8.98153 4.32989C9.01978 4.24266 8.99736 4.14306 8.92452 4.07662L5.90251 1.32124C5.85423 1.27718 5.78871 1.25245 5.7204 1.25245H5.15378V0.234834C5.15378 0.105143 5.03846 0 4.89622 0H4.34676C4.26854 0 4.19453 0.0324384 4.14566 0.0881409L3.10135 1.27837C2.12751 1.50729 1.36978 2.02549 0.848277 2.81951C0.142948 3.89345 -0.1245 5.44244 0.0533178 7.42347C0.184329 8.88285 0.512594 10.0169 0.526502 10.0644C0.539998 10.1108 0.570081 10.1536 0.610466 10.1843L2.16615 11.3664V12.2583C2.16615 12.5053 1.88661 12.8942 1.39921 13.3254C0.940757 13.731 0.494599 14.0069 0.394289 14.0483C0.303423 14.0857 0.243051 14.1714 0.243051 14.2622V15.7652C0.243051 15.8949 0.358368 16 0.500609 16H8.74244C8.88468 16 9 15.8949 9 15.7652V14.2622C8.99997 14.2609 8.99976 14.2596 8.99973 14.2582ZM2.68123 11.4912H6.56176V12.0235H2.68123V11.4912ZM1.29059 3.0602C1.75333 2.35591 2.4317 1.90362 3.30685 1.71585C3.36293 1.70383 3.413 1.67499 3.44899 1.63394L4.47053 0.469667H4.63863V1.48728C4.63863 1.61697 4.75394 1.72211 4.89618 1.72211H5.61371L8.44017 4.29921L8.03447 5.22398L4.40071 4.51404C4.28279 4.49099 4.15985 4.54826 4.11112 4.64883C4.06242 4.74943 4.09892 4.87083 4.19704 4.93473C4.2333 4.95834 7.71554 7.25476 7.92551 9.76908H6.55599C6.41375 9.76908 6.29843 9.87422 6.29843 10.0039C6.29843 10.1336 6.41375 10.2387 6.55599 10.2387H7.57114L6.71262 11.0215H2.5169L1.48668 10.2387H5.33122C5.47346 10.2387 5.58877 10.1336 5.58877 10.0039C5.58877 9.87422 5.47346 9.76908 5.33122 9.76908H0.977399C0.758887 8.91807 -0.0917381 5.16396 1.29059 3.0602ZM1.7579 13.6625C2.25231 13.2251 2.55004 12.833 2.64658 12.4932H6.5858C6.71196 13.1148 7.3129 13.6616 7.84618 14.0274H1.30941C1.45852 13.9153 1.61295 13.7907 1.7579 13.6625ZM8.48485 15.5303H0.758132V14.4971H8.48485V15.5303Z" fill="black"/>
<path d="M4.42001 2.80316C4.54971 2.80316 4.65485 2.69802 4.65485 2.56833C4.65485 2.43863 4.54971 2.3335 4.42001 2.3335C4.29032 2.3335 4.18518 2.43863 4.18518 2.56833C4.18518 2.69802 4.29032 2.80316 4.42001 2.80316Z" fill="black"/>
</svg>
