<svg width="12" height="11" viewBox="0 0 12 11" fill="none" xmlns="http://www.w3.org/2000/svg">
<path d="M6.79222 5.49922L10.7306 1.56996C10.9031 1.39749 11 1.16357 11 0.91966C11 0.675751 10.9031 0.441832 10.7306 0.269362C10.5582 0.0968925 10.3243 0 10.0803 0C9.83643 0 9.60251 0.0968925 9.43004 0.269362L5.50078 4.20778L1.57152 0.269362C1.39905 0.0968925 1.16513 -1.81726e-09 0.921223 0C0.677314 1.81726e-09 0.443395 0.0968925 0.270925 0.269362C0.0984556 0.441832 0.0015631 0.675751 0.0015631 0.91966C0.00156309 1.16357 0.0984556 1.39749 0.270925 1.56996L4.20935 5.49922L0.270925 9.42848C0.185078 9.51363 0.11694 9.61493 0.0704402 9.72654C0.0239405 9.83815 0 9.95787 0 10.0788C0 10.1997 0.0239405 10.3194 0.0704402 10.431C0.11694 10.5426 0.185078 10.6439 0.270925 10.7291C0.356071 10.8149 0.457372 10.8831 0.568984 10.9296C0.680597 10.9761 0.800311 11 0.921223 11C1.04213 11 1.16185 10.9761 1.27346 10.9296C1.38507 10.8831 1.48637 10.8149 1.57152 10.7291L5.50078 6.79065L9.43004 10.7291C9.51519 10.8149 9.61649 10.8831 9.7281 10.9296C9.83972 10.9761 9.95943 11 10.0803 11C10.2013 11 10.321 10.9761 10.4326 10.9296C10.5442 10.8831 10.6455 10.8149 10.7306 10.7291C10.8165 10.6439 10.8846 10.5426 10.9311 10.431C10.9776 10.3194 11.0016 10.1997 11.0016 10.0788C11.0016 9.95787 10.9776 9.83815 10.9311 9.72654C10.8846 9.61493 10.8165 9.51363 10.7306 9.42848L6.79222 5.49922Z" fill="#F8AD1D"/>
</svg>
