<svg width="12" height="12" viewBox="0 0 12 12" fill="none" xmlns="http://www.w3.org/2000/svg">
<path d="M6.98777 9.12414C6.97859 9.12414 6.96943 9.12339 6.96026 9.12266L7.09846 10.4104H6.926L7.09513 11.4783H8.97539C9.0741 11.4783 9.1544 11.5591 9.1544 11.6584C9.1544 11.7576 9.0741 11.8384 8.97539 11.8384H4.87329C4.77453 11.8384 4.69423 11.7576 4.69423 11.6584C4.69423 11.5591 4.77453 11.4783 4.87329 11.4783H5.28461L5.11548 10.4104H4.83789C4.46832 10.4104 4.1687 10.7117 4.1687 11.0834C4.1687 11.3453 4.31773 11.5716 4.53486 11.6829C4.54745 11.8598 4.69425 11.9999 4.87329 11.9999H8.97539C9.16266 11.9999 9.31501 11.8467 9.31501 11.6584C9.31501 11.47 9.16266 11.3168 8.97539 11.3168H8.4705C8.50607 11.2202 8.52034 11.1159 8.5091 11.0112L8.28898 8.96021L7.09165 9.11725C7.05731 9.12182 7.02233 9.12414 6.98777 9.12414Z" fill="black"/>
<path d="M7.95494 6.00874C7.91165 6.01941 7.86737 6.02478 7.82314 6.02478C7.75104 6.02478 7.68062 6.01084 7.61386 5.98329L7.15144 5.79248L6.38985 7.99202C6.37905 8.0206 6.37182 8.04964 6.3675 8.07869C6.32663 8.18181 6.3103 8.29642 6.3256 8.41432C6.32599 8.41732 6.32677 8.42015 6.3272 8.42313C6.37921 8.78695 6.71195 9.04261 7.07572 8.99458L9.73943 8.64519L9.79125 8.85156L10.8426 8.65309L10.4431 7.05026C10.4176 6.9476 10.4798 6.84315 10.5819 6.81745C10.5974 6.81353 10.6129 6.81166 10.6283 6.81166C10.7136 6.81166 10.7916 6.86989 10.8133 6.95691L11.8337 11.0506C11.8593 11.1532 11.797 11.2577 11.695 11.2834H11.6949C11.5929 11.3092 11.4891 11.2465 11.4635 11.1439L11.3377 10.6393L10.2899 10.837L10.4543 11.4914C10.5309 11.7965 10.8033 11.9997 11.1026 11.9997C11.1568 11.9997 11.212 11.993 11.267 11.9791C11.535 11.911 11.7239 11.6891 11.7642 11.4308C11.8146 11.4131 11.8587 11.3847 11.8948 11.3488C11.9804 11.2637 12.0208 11.1369 11.9895 11.0113L10.9691 6.91764C10.922 6.72864 10.731 6.61336 10.5427 6.66076C10.3548 6.70817 10.2402 6.90047 10.2873 7.08952L10.2914 7.10563L10.3231 7.23284C10.2686 7.22622 10.2127 7.2257 10.156 7.23314L7.84973 7.53568L7.83762 7.41241L9.50061 7.19425L10.3053 5.41846C10.2775 5.43058 10.2486 5.44109 10.2182 5.44862L7.95494 6.00874Z" fill="black"/>
<path d="M11.2594 10.3253L10.9209 8.96704L9.87006 9.16541L10.2111 10.5232L11.2594 10.3253Z" fill="black"/>
<path d="M7.866 4.88844L9.16971 4.56578L9.20634 4.68425L7.85642 5.01836L5.07713 3.87141C4.85823 3.78123 4.60812 3.88629 4.5183 4.10638C4.42853 4.32648 4.53315 4.57806 4.75195 4.6684L7.66053 5.86867C7.71244 5.89007 7.76771 5.90089 7.82312 5.90089C7.85742 5.90089 7.89177 5.89674 7.92549 5.88844L10.1887 5.32832C10.4154 5.27221 10.5548 5.04408 10.504 4.81598C10.5033 4.81302 10.503 4.81006 10.5022 4.8071C10.4916 4.76366 10.4748 4.72342 10.4529 4.68706C10.4072 4.60422 10.3334 4.53647 10.2384 4.50016L8.30496 3.76126C8.20934 3.72472 8.10876 3.72641 8.01943 3.75841C7.94935 3.77361 7.88207 3.80642 7.82475 3.85786L7.05154 4.55234L7.866 4.88844Z" fill="black"/>
<path d="M10.5231 3.38399L10.7244 3.45706C10.8105 3.32708 10.8723 3.1794 10.9033 3.02051L10.6984 2.99072C10.669 3.13282 10.6095 3.26711 10.5231 3.38399Z" fill="black"/>
<path d="M10.7201 2.78977C10.72 2.81602 10.7184 2.84212 10.7163 2.86812L10.9208 2.89784C10.924 2.86247 10.926 2.82674 10.9262 2.79056C10.9266 2.67081 10.9095 2.55517 10.8778 2.4458L10.6672 2.46449C10.7022 2.56889 10.7205 2.67782 10.7201 2.78977Z" fill="black"/>
<path d="M9.78913 2.97999C9.78594 2.99531 9.77524 3.0433 9.75623 3.10555L10.4013 3.33976C10.4877 3.23273 10.5473 3.10699 10.5762 2.97299L9.80451 2.86084L9.78913 2.97999Z" fill="black"/>
<path d="M9.47871 3.54602C9.41278 3.58167 9.3399 3.58551 9.26833 3.55709C9.11235 3.49519 8.92885 3.52744 8.80054 3.5661C9.02049 3.82846 9.34907 3.99585 9.717 3.99727C10.0909 3.99872 10.4257 3.82868 10.6476 3.56069L9.7153 3.22217C9.66525 3.34813 9.58842 3.4868 9.47871 3.54602Z" fill="black"/>
<path d="M9.82473 2.70422L9.82037 2.73795L10.594 2.85038C10.5954 2.8301 10.5968 2.80979 10.5969 2.78934C10.5973 2.6809 10.5774 2.57589 10.54 2.47583L10.0129 2.52261C9.91476 2.53131 9.83738 2.606 9.82473 2.70422Z" fill="black"/>
<path d="M10.9656 2.02435C10.7701 1.46627 10.2413 1.07764 9.62945 1.07764C9.60655 1.07764 9.5836 1.07819 9.56054 1.0793C8.89365 1.11097 8.33644 1.61581 8.23559 2.27969C8.16778 2.7264 8.31333 3.17845 8.62582 3.49757C8.73618 3.44996 9.04788 3.33665 9.31346 3.44192C9.35178 3.45711 9.38582 3.45561 9.42038 3.437C9.55547 3.36413 9.64482 3.06721 9.66783 2.95896L9.70259 2.68823C9.72277 2.53191 9.84594 2.41306 10.002 2.3992L10.7245 2.33508C10.8741 2.32712 11.0278 2.31305 11.1559 2.29476C11.3353 2.26914 11.4647 2.23528 11.4623 2.19844C11.4571 2.1173 11.3104 2.05594 11.0983 2.03312C11.0565 2.02862 11.012 2.02571 10.9656 2.02435ZM10.3798 1.6806C10.4443 1.63944 10.5469 1.68579 10.609 1.78413C10.671 1.88246 10.669 1.99554 10.6045 2.0367C10.54 2.07787 10.4375 2.03151 10.3754 1.93317C10.3134 1.83483 10.3153 1.72175 10.3798 1.6806Z" fill="black"/>
<path d="M3.71376 3.92033L4.33172 3.19413L0.621054 0.000396975C0.621054 0.000396975 0.472616 -0.0225283 0.215132 0.280056C-0.0423572 0.582635 0.00309435 0.726588 0.00309435 0.726588L3.71376 3.92033Z" fill="black"/>
<path d="M4.62625 3.79724L4.43499 3.63262L4.37839 3.40649L3.92944 3.93407L4.16034 3.95538L4.37839 4.14304C4.38496 4.11498 4.39311 4.08703 4.40433 4.05953C4.44997 3.94772 4.5287 3.85738 4.62625 3.79724Z" fill="black"/>
<path d="M4.8006 4.82227L5.8503 6.17123C5.92329 6.26503 6.03161 6.32423 6.14956 6.3348C6.16226 6.33596 6.17491 6.33651 6.18757 6.33651C6.29239 6.33651 6.39402 6.29781 6.47286 6.22704L7.01808 5.73733L4.8006 4.82227Z" fill="black"/>
<path d="M5.60987 11.4783H6.76983L6.6007 10.4104H5.44073L5.60987 11.4783Z" fill="black"/>
</svg>
