<svg width="15" height="12" viewBox="0 0 15 12" fill="none" xmlns="http://www.w3.org/2000/svg">
<path d="M13.2764 12C13.0043 11.9997 12.7361 11.9274 12.4937 11.7891C12.2512 11.6507 12.0413 11.45 11.8811 11.2035L10.3599 8.859C10.2689 8.71925 10.1499 8.6055 10.0123 8.52702C9.87483 8.44851 9.72274 8.40746 9.56843 8.4072H5.43161C5.27731 8.40746 5.12522 8.44851 4.9877 8.52702C4.85019 8.6055 4.73113 8.71925 4.64019 8.859L3.11896 11.2035C2.89293 11.5519 2.56954 11.8057 2.20015 11.9245C1.83076 12.0434 1.43652 12.0205 1.08005 11.8596C0.723581 11.6986 0.425294 11.4088 0.23255 11.0361C0.0398095 10.6634 -0.0363434 10.2292 0.0161872 9.80243L0.717287 4.10271C0.860501 2.96719 1.36383 1.92752 2.1351 1.17408C2.90638 0.420623 3.89399 0.00382345 4.91704 0H10.083C11.1061 0.00382345 12.0937 0.420623 12.8649 1.17408C13.6362 1.92752 14.1395 2.96719 14.2828 4.10271L14.9839 9.80243C15.0175 10.0759 14.9984 10.3543 14.9281 10.6189C14.8577 10.8835 14.7376 11.1281 14.5758 11.3363C14.414 11.5445 14.2144 11.7115 13.9903 11.8259C13.7661 11.9404 13.5227 11.9998 13.2764 12Z" fill="black"/>
<path d="M8.31531 4.02087V4.3864C8.31531 4.62875 8.4012 4.86119 8.55407 5.03259C8.70698 5.20395 8.91434 5.30023 9.13054 5.30023C9.34674 5.30023 9.5541 5.20395 9.70701 5.03259C9.85988 4.86119 9.94577 4.62875 9.94577 4.3864V4.02087H8.31531Z" fill="black"/>
<path d="M11.2501 4.02087V4.3864C11.2501 4.62875 11.336 4.86119 11.4888 5.03259C11.6417 5.20395 11.8491 5.30023 12.0653 5.30023C12.2815 5.30023 12.4889 5.20395 12.6418 5.03259C12.7946 4.86119 12.8805 4.62875 12.8805 4.3864V4.02087H11.2501Z" fill="black"/>
<path d="M9.78265 2.37598V2.74151C9.78265 2.98385 9.86855 3.21629 10.0214 3.38769C10.1743 3.55905 10.3817 3.65533 10.5979 3.65533C10.8141 3.65533 11.0214 3.55905 11.1744 3.38769C11.3272 3.21629 11.4131 2.98385 11.4131 2.74151V2.37598H9.78265Z" fill="black"/>
<path d="M10.5979 3.28981C11.0481 3.28981 11.4131 2.88067 11.4131 2.37598C11.4131 1.8713 11.0481 1.46216 10.5979 1.46216C10.1476 1.46216 9.78265 1.8713 9.78265 2.37598C9.78265 2.88067 10.1476 3.28981 10.5979 3.28981Z" fill="white"/>
<path d="M9.78265 5.66577V6.0313C9.78265 6.27365 9.86855 6.50609 10.0214 6.67749C10.1743 6.84885 10.3817 6.94513 10.5979 6.94513C10.8141 6.94513 11.0214 6.84885 11.1744 6.67749C11.3272 6.50609 11.4131 6.27365 11.4131 6.0313V5.66577H9.78265Z" fill="black"/>
<path d="M10.5979 6.57961C11.0481 6.57961 11.4131 6.17047 11.4131 5.66578C11.4131 5.16109 11.0481 4.75195 10.5979 4.75195C10.1476 4.75195 9.78265 5.16109 9.78265 5.66578C9.78265 6.17047 10.1476 6.57961 10.5979 6.57961Z" fill="white"/>
<path d="M9.13054 4.93471C9.58078 4.93471 9.94577 4.52557 9.94577 4.02088C9.94577 3.51619 9.58078 3.10706 9.13054 3.10706C8.6803 3.10706 8.31531 3.51619 8.31531 4.02088C8.31531 4.52557 8.6803 4.93471 9.13054 4.93471Z" fill="white"/>
<path d="M12.0653 4.93471C12.5155 4.93471 12.8805 4.52557 12.8805 4.02088C12.8805 3.51619 12.5155 3.10706 12.0653 3.10706C11.6151 3.10706 11.2501 3.51619 11.2501 4.02088C11.2501 4.52557 11.6151 4.93471 12.0653 4.93471Z" fill="white"/>
<path d="M2.28253 4.02087V4.56917C2.28253 4.81152 2.36842 5.04396 2.52131 5.21535C2.67419 5.38672 2.88155 5.483 3.09776 5.483H3.5869V6.03129C3.5869 6.27364 3.6728 6.50608 3.82567 6.67748C3.97857 6.84884 4.18594 6.94512 4.40214 6.94512C4.61834 6.94512 4.8257 6.84884 4.9786 6.67748C5.13148 6.50608 5.21737 6.27364 5.21737 6.03129V5.483H5.70651C5.92271 5.483 6.13007 5.38672 6.28298 5.21535C6.43585 5.04396 6.52174 4.81152 6.52174 4.56917V4.02087H2.28253Z" fill="black"/>
<path d="M5.70651 3.10702H5.21737V2.55872C5.21737 2.31638 5.13148 2.08394 4.9786 1.91254C4.8257 1.74118 4.61834 1.6449 4.40214 1.6449C4.18594 1.6449 3.97857 1.74118 3.82567 1.91254C3.6728 2.08394 3.5869 2.31638 3.5869 2.55872V3.10702H3.09776C2.88155 3.10702 2.67419 3.2033 2.52131 3.37466C2.36842 3.54606 2.28253 3.7785 2.28253 4.02085C2.28253 4.26319 2.36842 4.49563 2.52131 4.66703C2.67419 4.83839 2.88155 4.93467 3.09776 4.93467H3.5869V5.48297C3.5869 5.72531 3.6728 5.95776 3.82567 6.12915C3.97857 6.30051 4.18594 6.39679 4.40214 6.39679C4.61834 6.39679 4.8257 6.30051 4.9786 6.12915C5.13148 5.95776 5.21737 5.72531 5.21737 5.48297V4.93467H5.70651C5.92271 4.93467 6.13007 4.83839 6.28298 4.66703C6.43585 4.49563 6.52174 4.26319 6.52174 4.02085C6.52174 3.7785 6.43585 3.54606 6.28298 3.37466C6.13007 3.2033 5.92271 3.10702 5.70651 3.10702Z" fill="white"/>
</svg>
