<svg width="12" height="12" viewBox="0 0 12 12" fill="none" xmlns="http://www.w3.org/2000/svg">
<path d="M11.94 3.46L9.38 0.76C9.44 0.5 9.34 0.22 9.1 0.08C8.96 2.98023e-08 8.8 -0.02 8.64 0.02C8.48 0.06 8.36 0.16 8.28 0.3L7.04 2.44C6.42 2.16 5.76 2.02 5.06 2L3.12 0.44C3.06 0.4 2.98 0.38 2.92 0.42C2.86 0.44 2.8 0.5 2.8 0.58L2.62 2.6C1 3.48 0 5.16 0 7C0 9.76 2.24 12 5 12C7.76 12 10 9.76 10 7C10 6.96 10 6.92 10 6.9L11.12 7.38C11.14 7.4 11.18 7.4 11.2 7.4C11.24 7.4 11.28 7.38 11.32 7.36C11.38 7.32 11.4 7.24 11.4 7.16L11 5.16V5.14C11 5.14 11 5.14 11 5.12V5.1C11 5.1 11 5.1 11 5.08C11 5.08 11 5.06 10.98 5.06L10.96 5.04C10.94 5.02 10.94 5.02 10.92 5C10.92 5 10.92 5 10.9 5C10.9 5 10.9 5 10.88 5C10.88 5 10.88 5 10.86 5H10.84C10.84 5 10.84 5 10.82 5C10.82 5 10.82 5 10.8 5C10.78 5 10.78 5 10.76 5H10.74C10.72 5 10.72 5.02 10.7 5.02C10.7 5.02 10.68 5.02 10.68 5.04L9.96 5.66L9.86 5.76C9.64 4.9 9.2 4.12 8.58 3.5L11.78 3.8H11.8C11.88 3.8 11.94 3.76 11.98 3.68C12.02 3.62 12 3.52 11.94 3.46ZM2.98 3.08L5.02 2.4C5.66 2.4 6.26 2.54 6.84 2.78L6.44 3.48C5.98 3.28 5.5 3.2 5 3.2C4.24 3.2 3.52 3.42 2.92 3.82L2.98 3.08ZM5 4.8C5.22 4.8 5.42 4.84 5.62 4.9L5.2 5.62C5.14 5.6 5.08 5.6 5 5.6C4.22 5.6 3.6 6.22 3.6 7C3.6 7.78 4.22 8.4 5 8.4C5.78 8.4 6.4 7.78 6.4 7C6.4 6.74 6.34 6.5 6.2 6.3L6.64 5.54C7 5.94 7.2 6.46 7.2 7C7.2 8.22 6.22 9.2 5 9.2C3.78 9.2 2.8 8.22 2.8 7C2.8 5.78 3.78 4.8 5 4.8ZM2.88 4.36L2.8 5.22C2.8 5.32 2.7 5.4 2.6 5.4H2.58C2.48 5.4 2.4 5.3 2.4 5.2V5.18L2.44 4.78C2.56 4.62 2.72 4.48 2.88 4.36ZM9.6 7C9.6 9.54 7.54 11.6 5 11.6C2.46 11.6 0.4 9.54 0.4 7C0.4 5.4 1.22 3.92 2.58 3.08L2.48 4.14C1.7 4.84 1.2 5.86 1.2 7C1.2 9.1 2.9 10.8 5 10.8C7.02 10.8 8.68 9.2 8.8 7.2L9.44 6.64L9.6 6.7C9.6 6.82 9.6 6.92 9.6 7ZM7.6 7.8C7.6 7.74 7.62 7.68 7.66 7.64L8.4 7C8.4 7.2 8.38 7.38 8.34 7.58L7.92 7.94C7.9 7.98 7.84 8 7.8 8C7.74 8 7.68 7.98 7.64 7.92C7.62 7.9 7.6 7.84 7.6 7.8ZM9.5 6.06L8.78 6.68C8.7 5.68 8.22 4.76 7.46 4.12L7.86 3.44H7.9C8.72 4.1 9.28 5.02 9.5 6.06ZM8.98 0.7L5.8 6.2L5.38 6.94C5.32 7.04 5.2 7.06 5.1 7.02C5.06 7 5.02 6.96 5 6.9C4.98 6.84 5 6.8 5.02 6.74L8.62 0.5C8.64 0.46 8.68 0.42 8.74 0.4C8.76 0.4 8.78 0.4 8.8 0.4C8.84 0.4 8.86 0.4 8.9 0.42C8.94 0.44 8.98 0.5 9 0.54C9 0.6 9 0.66 8.98 0.7Z" fill="black"/>
</svg>
