<svg width="15" height="15" viewBox="0 0 15 15" fill="none" xmlns="http://www.w3.org/2000/svg">
<g clip-path="url(#clip0_1_249)">
<path d="M12.8906 11.25C13.6406 10.1719 14.0625 8.90625 14.0625 7.5C14.0625 6.23437 13.6875 5.0625 13.0781 4.07812C13.0781 4.03125 13.0312 4.03125 13.0312 3.98438C11.8594 2.15625 9.84375 0.9375 7.5 0.9375C5.15625 0.9375 3.09375 2.15625 1.96875 4.03125C1.96875 4.07813 1.92188 4.07813 1.92188 4.125C1.3125 5.10938 0.984375 6.28125 0.984375 7.54688C0.984375 8.95313 1.40625 10.2188 2.15625 11.2969L2.20312 11.3438C3.32812 12.9844 5.29687 14.0625 7.5 14.0625C9.70312 14.0625 11.625 12.9844 12.8437 11.3438C12.8437 11.2969 12.8437 11.2969 12.8906 11.25ZM12.1875 10.5469L10.5 10.7812L9.84375 10.125L10.7812 7.40625L12.2344 6.70313L13.1719 7.26562C13.1719 7.35938 13.1719 7.45313 13.1719 7.59375C13.125 8.625 12.7969 9.70313 12.1875 10.5469ZM12.1406 4.35938L11.7656 5.76563L10.2656 6.51562L7.96875 4.92188V3.09375L9.5625 2.29688C10.6406 2.71875 11.5312 3.42188 12.1406 4.35938ZM5.39062 2.29688L7.03125 3.09375V4.92188L4.73438 6.5625L3.1875 5.8125L2.8125 4.35938C3.46875 3.42188 4.35937 2.71875 5.39062 2.29688ZM1.875 7.17188L2.8125 6.60938L4.26563 7.35937L5.20312 10.0781L4.54687 10.7344L2.8125 10.5469C2.20313 9.65625 1.875 8.625 1.875 7.5C1.875 7.40625 1.875 7.26563 1.875 7.17188ZM6.04687 12.9375L5.25 11.3438L5.8125 10.7812H9.1875L9.75 11.3438L8.95312 12.9375C8.48438 13.0781 8.01562 13.125 7.5 13.125C6.98437 13.125 6.51562 13.0313 6.04687 12.9375Z" fill="black"/>
</g>
<defs>
<clipPath id="clip0_1_249">
<rect width="15" height="15" fill="white"/>
</clipPath>
</defs>
</svg>
