<svg width="12" height="12" viewBox="0 0 12 12" fill="none" xmlns="http://www.w3.org/2000/svg">
<path d="M3.49554 0.776827C3.46071 0.71522 3.43929 0.648256 3.43125 0.578613C1.40357 1.5429 0 3.61075 0 6.00004C0 8.38932 1.40357 10.4572 3.43125 11.4215C3.43661 11.3518 3.46071 11.2849 3.49554 11.2233C2.37589 10.0179 1.71429 8.08397 1.71429 6.00004C1.71429 3.91611 2.37589 1.98218 3.49554 0.776827Z" fill="black"/>
<path d="M6.00005 1.49979C5.63845 1.49979 5.26612 1.47301 4.92327 1.41943C4.51612 2.57658 4.28577 4.23193 4.28577 5.99979C4.28577 7.76765 4.51612 9.42033 4.92327 10.5801C5.26612 10.5266 5.63845 10.4998 6.00005 10.4998C6.36166 10.4998 6.73398 10.5266 7.07684 10.5801C7.25898 10.0578 7.41166 9.41497 7.5188 8.71051C7.64737 7.86408 7.71434 6.95336 7.71434 6.00247C7.71434 4.23729 7.48398 2.58193 7.07684 1.42211C6.73398 1.473 6.36166 1.49979 6.00005 1.49979Z" fill="black"/>
<path d="M4.39819 0.8625C4.52408 0.902678 4.66337 0.9375 4.81337 0.966964C4.8214 0.966964 4.82944 0.969643 4.8348 0.972321C5.18033 1.03929 5.57944 1.07411 5.99729 1.07411C6.41515 1.07411 6.81426 1.03929 7.15979 0.972321C7.16783 0.969643 7.17587 0.969643 7.18122 0.966964C7.33122 0.9375 7.47051 0.902678 7.5964 0.8625C8.01158 0.73125 8.14283 0.586607 8.14283 0.535714C8.14283 0.490178 8.04104 0.372321 7.73569 0.257143C7.18658 0.0910714 6.60265 0 5.99997 0C5.99462 0 5.98926 0 5.9839 0H5.97319C5.97051 0 5.96515 0 5.96247 0C5.9598 0 5.95712 0 5.95176 0C5.36515 0.00535714 4.79997 0.09375 4.26426 0.254464C3.9589 0.372321 3.85712 0.490178 3.85712 0.535714C3.85712 0.586607 3.98837 0.73125 4.39819 0.8625Z" fill="black"/>
<path d="M3.85717 6.0001C3.85717 4.21618 4.0902 2.53671 4.49735 1.33671C4.22681 1.26975 3.98842 1.18135 3.80628 1.07153C2.76163 2.19921 2.14288 4.02332 2.14288 6.0001C2.14288 7.97689 2.76163 9.801 3.80628 10.9287C3.98842 10.8189 4.22681 10.7305 4.49735 10.6635C4.0902 9.4635 3.85717 7.78403 3.85717 6.0001Z" fill="black"/>
<path d="M7.60181 11.1376C7.47591 11.0975 7.33395 11.0626 7.18395 11.0332C7.17591 11.0332 7.17056 11.0305 7.16252 11.0278C6.81431 10.9608 6.4152 10.926 5.99734 10.926C5.57948 10.926 5.18038 10.9608 4.83216 11.0278C4.82413 11.0305 4.81877 11.0305 4.81074 11.0332C4.66074 11.0626 4.52145 11.0975 4.39288 11.1376C3.98306 11.2689 3.85181 11.4135 3.85181 11.4644C3.85181 11.51 3.95359 11.6278 4.25895 11.743C4.80806 11.9091 5.39199 12.0001 5.99466 12.0001C6.59734 12.0001 7.18127 11.9091 7.73038 11.743C8.03574 11.6251 8.13752 11.5073 8.13752 11.4644C8.14288 11.4135 8.01163 11.2689 7.60181 11.1376Z" fill="black"/>
<path d="M8.5688 0.578613C8.56345 0.648256 8.53934 0.71522 8.50452 0.776827C9.62148 1.98218 10.2858 3.91611 10.2858 6.00004C10.2858 8.08397 9.62416 10.0179 8.50452 11.2233C8.53934 11.2849 8.56077 11.3518 8.5688 11.4215C10.5965 10.4572 12.0001 8.38932 12.0001 6.00004C12.0001 3.61075 10.5965 1.5429 8.5688 0.578613Z" fill="black"/>
<path d="M8.19375 1.07153C8.01161 1.18135 7.77321 1.26975 7.50268 1.33671C7.90982 2.53671 8.14286 4.21618 8.14286 6.0001C8.14286 6.97243 8.07589 7.90725 7.94196 8.77243C7.83482 9.47957 7.68214 10.1251 7.5 10.6635C7.77054 10.7305 8.00893 10.8189 8.19375 10.9287C9.23839 9.801 9.85714 7.97689 9.85714 6.0001C9.85714 4.02332 9.23839 2.19921 8.19375 1.07153Z" fill="black"/>
</svg>
