<svg width="14" height="12" viewBox="0 0 14 12" fill="none" xmlns="http://www.w3.org/2000/svg">
<path fill-rule="evenodd" clip-rule="evenodd" d="M9.31644 3.58552L5.38163 11.4362C5.22876 11.7412 4.81451 12 4.46354 12L0.635485 12C0.288756 12 0 11.7175 0 11.369V10.736C0 10.3846 0.282732 10.105 0.6315 10.105H3.82427L7.56983 2.70354L9.31644 3.58552ZM9.6 3.01977L10.4833 1.25735C10.657 0.910792 10.5184 0.490369 10.1699 0.316435L9.68648 0.0751348C9.33969 -0.0979592 8.91855 0.0383773 8.74681 0.377763L7.85557 2.13889L9.6 3.01977ZM5.57686 5.36781L4.68807 3.59452L6.43472 2.71252L6.67597 3.18925L5.57686 5.36781ZM7.32389 8.85344L8.61837 11.4362C8.77124 11.7412 9.18549 12 9.53646 12L13.3645 12C13.7112 12 14 11.7175 14 11.369V10.736C14 10.3846 13.7173 10.105 13.3685 10.105H10.1757L8.43144 6.65816L7.32389 8.85344ZM4.40451 3.02876L3.51666 1.25735C3.34296 0.910792 3.4816 0.490369 3.83007 0.316435L4.31352 0.0751348C4.66031 -0.0979592 5.08145 0.0383773 5.25319 0.377763L6.14897 2.14787L4.40451 3.02876Z" fill="black"/>
</svg>
