<svg width="16" height="16" viewBox="0 0 16 16" fill="none" xmlns="http://www.w3.org/2000/svg">
<path d="M12.4263 0.599974C12.3815 0.539309 12.3104 0.503418 12.2348 0.503418H11.0121C10.9076 0.503418 10.8152 0.571706 10.7844 0.671597L7.02268 12.9024H2.87093C2.55077 12.9024 2.26428 13.1052 2.15788 13.407L1.73799 14.5976C1.6589 14.7924 1.67431 14.9817 1.78103 15.1308C1.89982 15.2971 2.12072 15.3927 2.3683 15.3927C2.38688 15.3927 2.40562 15.3922 2.42452 15.3911H3.8041C3.80648 15.3911 3.80902 15.3924 3.8114 15.3924C3.81442 15.3924 3.81712 15.3911 3.81998 15.3911H6.88753C7.28836 15.3911 7.95933 15.3911 8.23105 14.5799L12.4622 0.811507C12.4846 0.739249 12.4713 0.660639 12.4263 0.599974ZM2.41118 14.915C2.27985 14.9231 2.18996 14.8836 2.16852 14.8537C2.15899 14.8404 2.16852 14.8038 2.18345 14.7662L2.60731 13.5655C2.64654 13.4538 2.75262 13.3789 2.87109 13.3789H4.21668L3.6464 14.915H2.41118ZM7.77781 14.4341C7.62774 14.8821 7.34141 14.9145 6.88785 14.9145L4.15459 14.9147L4.72487 13.3787H7.1988C7.30329 13.3787 7.39572 13.3104 7.42653 13.2105L11.1882 0.979686H11.9126L7.77781 14.4341Z" fill="black"/>
<path d="M12.2346 12.9431C11.195 12.9431 10.3807 13.4807 10.3807 14.1671C10.3807 14.8534 11.195 15.391 12.2346 15.391C13.2743 15.391 14.0887 14.8534 14.0887 14.1671C14.0887 13.4807 13.2743 12.9431 12.2346 12.9431ZM12.2346 14.9146C11.4229 14.9146 10.8571 14.5207 10.8571 14.1671C10.8571 13.8134 11.4228 13.4195 12.2346 13.4195C13.0464 13.4195 13.6123 13.8134 13.6123 14.1671C13.6123 14.5207 13.0466 14.9146 12.2346 14.9146Z" fill="black"/>
</svg>
