<svg width="76" height="16" viewBox="0 0 76 16" fill="none" xmlns="http://www.w3.org/2000/svg">
<g clip-path="url(#clip0_1_199)">
<path d="M9.28687 0L10.2219 3.99771L11.8629 0H9.28687Z" fill="#0365F4"/>
<path d="M10.8729 15.9861L9.58029 11.5776L7.53589 15.9815H10.8729V15.9861Z" fill="#0365F4"/>
<path d="M72.9749 0H16.5659L12.3809 7.86613L15.7959 15.9862H71.6407L76 7.99539L72.9749 0Z" fill="#0365F4"/>
<path d="M7.43501 7.86613L4.34089 0H4.33173L0 7.99079L2.95199 15.857L7.43501 7.86613Z" fill="#0365F4"/>
<path d="M50.4543 5.1287C50.4543 5.1287 50.3673 6.23199 50.3535 6.28277C50.3352 6.35663 50.294 6.38433 50.2389 6.38433H49.0013C48.9875 6.38433 48.9692 6.37971 48.9554 6.3751C48.9417 6.37048 48.928 6.36125 48.9187 6.3474C48.9096 6.33817 48.9004 6.32432 48.8913 6.31047C48.8867 6.29662 48.8821 6.27815 48.8821 6.26431L48.9463 5.29488C48.9508 5.19333 49.015 4.93481 48.6162 4.93943H48.0112C47.5895 4.94866 47.6399 5.17486 47.6215 5.29488L47.1678 10.7005C47.154 10.7513 47.154 10.7975 47.1631 10.8483C47.1723 10.8991 47.1907 10.9452 47.2182 10.9821C47.2961 11.0422 47.3969 11.0653 47.4978 11.056H48.1074C48.2037 11.0653 48.3045 11.0375 48.3871 10.9821C48.4558 10.9037 48.4925 10.8021 48.4925 10.6959L48.6529 8.84944H48.112C48.0845 8.84484 48.0616 8.83098 48.0433 8.80791C48.0249 8.78478 48.0158 8.76171 48.0158 8.73405V8.71092L48.0387 8.4386L48.0845 7.92155C48.0845 7.92155 48.0845 7.91235 48.0891 7.88002C48.0937 7.85229 48.1074 7.82463 48.1257 7.80616C48.1487 7.78769 48.1762 7.77843 48.2037 7.77843H50.106C50.1381 7.77843 50.1656 7.79229 50.1885 7.81536C50.2114 7.83849 50.2252 7.86616 50.2252 7.89849V7.96309L50.2068 8.18928L49.9776 10.8529C49.9089 11.7208 49.4001 12.1547 48.4604 12.1547H46.9477C46.0126 12.1547 45.5818 11.7208 45.6551 10.8529L46.141 5.1287C46.2189 4.26084 46.7277 3.8269 47.6628 3.8269H49.1709C50.1014 3.8269 50.5277 4.24237 50.4543 5.1287Z" fill="white"/>
<path d="M12.7431 3.97003L12.6056 4.29779L10.8362 7.90308L12.1747 11.6931L12.2801 12.0209C12.3076 12.1224 12.2663 12.1455 12.2251 12.1455H10.7675C10.717 12.1455 10.6757 12.1409 10.6574 12.0716C10.6528 12.0624 9.91028 9.25108 9.91028 9.25108L8.66343 12.0578C8.65888 12.067 8.65427 12.0716 8.64972 12.0809C8.6405 12.0993 8.62218 12.1132 8.60386 12.1224C8.58555 12.1317 8.56716 12.1409 8.5443 12.1409H7.20579C7.0912 12.1409 7.06827 12.0763 7.10497 12.0024L7.26535 11.6746L9.18601 7.90308L7.98963 4.29779L7.86588 3.92387C7.8475 3.85463 7.89336 3.82693 7.98047 3.82693H9.41518C9.43811 3.82231 9.46104 3.82693 9.47481 3.84077C9.49313 3.85463 9.5069 3.87309 9.5069 3.89617L9.52976 3.98388L10.1211 6.569C10.1211 6.569 11.18 3.92848 11.1937 3.89617C11.2121 3.84539 11.2213 3.82693 11.2991 3.82693H12.6422C12.711 3.82693 12.7935 3.84539 12.7431 3.97003Z" fill="#FFFEFD"/>
<path d="M16.5476 7.66763V7.73689L16.5293 7.95841V7.96308L16.488 8.45239L16.4743 8.57238C16.4605 8.64165 16.4147 8.64165 16.3688 8.64165H13.4627C13.4306 8.64165 13.4031 8.62778 13.3801 8.60471C13.3573 8.58165 13.3435 8.55392 13.3435 8.52165V8.50779L13.371 8.2216L13.4168 7.68149V7.66763C13.4168 7.65376 13.4215 7.6353 13.426 7.62143C13.4352 7.59837 13.4489 7.5799 13.4719 7.56603C13.4902 7.55223 13.5131 7.54757 13.5406 7.54297H16.4284C16.4422 7.54297 16.4605 7.54757 16.4743 7.55223C16.488 7.55683 16.5018 7.56603 16.5155 7.5799C16.5247 7.58917 16.5339 7.60297 16.543 7.62143C16.5522 7.6399 16.5476 7.65376 16.5476 7.66763Z" fill="white"/>
<path d="M21.1131 3.8269H18.1199C18.0923 3.8269 18.0649 3.84075 18.0419 3.85922C18.019 3.87768 18.0052 3.90538 18.0052 3.93308C18.0052 3.94231 18.0007 3.97001 18.0007 3.97001L17.336 11.7254L17.3131 12.0023V12.0208C17.3131 12.0347 17.3177 12.0531 17.3223 12.067C17.3268 12.0808 17.336 12.0947 17.3497 12.1085C17.3589 12.1177 17.3727 12.127 17.391 12.1362C17.4048 12.1409 17.4231 12.1455 17.4369 12.1455H20.4072C21.3423 12.1455 21.8511 11.7162 21.9244 10.8483L22.0895 8.89557C22.1353 8.3878 21.9794 8.06928 21.6265 7.94462C21.9978 7.82463 22.2086 7.48764 22.2545 6.93367L22.4103 5.13793C22.4836 4.26545 22.0528 3.83152 21.1131 3.8269ZM20.4622 10.6775C20.4622 10.7283 20.453 10.779 20.4347 10.8252C20.4164 10.8713 20.3888 10.9175 20.3522 10.9545C20.2651 11.0145 20.233 11.0375 20.0405 11.0329H18.8716L19.0916 8.49399H20.2605C20.3934 8.48933 20.4622 8.49859 20.5355 8.57246C20.5905 8.61399 20.6043 8.70632 20.6043 8.84944L20.4622 10.6775ZM20.9114 5.29027L20.7739 7.0306C20.7647 7.1368 20.7235 7.23372 20.6455 7.31219C20.5539 7.37218 20.4806 7.38605 20.3522 7.38605H19.1787L19.3896 4.93481H20.5631C20.6822 4.93943 20.7418 4.93943 20.8335 5.00868C20.8793 5.04099 20.9068 5.09177 20.9114 5.14716C20.916 5.21179 20.916 5.23026 20.9114 5.29027Z" fill="white"/>
<path d="M27.5351 3.94695L27.5214 4.23316V4.23778L27.4709 4.8702C27.4618 4.97638 27.4251 4.99023 27.3517 4.99023H25.0828L24.8856 7.29839H26.7513C26.7834 7.29839 26.8108 7.31225 26.8338 7.33532C26.8567 7.35838 26.8705 7.38611 26.8705 7.41838V7.49224L26.8567 7.70463L26.8063 8.3232C26.8063 8.35553 26.7971 8.3832 26.788 8.41093C26.7788 8.42939 26.7651 8.44786 26.7467 8.45706C26.7284 8.46633 26.71 8.47093 26.6871 8.47093H24.794L24.574 10.9868H26.898C27.008 10.9868 27.0309 11.0237 27.0355 11.0976L27.0217 11.3838L26.9759 11.947L26.9667 12.067C26.9576 12.1455 26.9117 12.1455 26.8292 12.1409H22.9788L23.6801 3.83154H27.4159C27.4297 3.83154 27.448 3.83154 27.4618 3.84078C27.4756 3.85001 27.4893 3.85462 27.4984 3.86385C27.5076 3.87309 27.5168 3.88693 27.5214 3.90079C27.5305 3.91925 27.5351 3.9331 27.5351 3.94695Z" fill="white"/>
<path d="M37.1063 3.94233L37.1017 4.01157L37.0833 4.23778L37.0283 4.76865C37.01 4.93945 37.0054 4.98561 36.8358 4.98561H35.5844L34.9839 11.947C34.9839 11.947 34.9794 12.0208 34.9748 12.0393C34.9702 12.067 34.9564 12.0947 34.9335 12.1131C34.9106 12.1316 34.8831 12.1409 34.8556 12.1409H33.6179C33.6042 12.1409 33.5858 12.1363 33.5721 12.1316C33.5584 12.127 33.5446 12.1178 33.5308 12.1039C33.5217 12.0947 33.5125 12.0809 33.5034 12.0624C33.4987 12.0485 33.4942 12.0301 33.4942 12.0162V11.9562L33.5125 11.73L34.1038 4.98561H32.8066C32.7287 4.98561 32.6828 4.93483 32.6966 4.84712L32.7195 4.584L32.7562 4.17777V4.15468L32.7791 3.89617C32.7883 3.84078 32.8204 3.83154 32.8845 3.83154H36.9871C37.0192 3.83154 37.0466 3.84078 37.0696 3.86385C37.0925 3.88232 37.1063 3.91463 37.1063 3.94233Z" fill="white"/>
<path d="M39.7097 3.94692V3.97001L39.6867 4.24698L39.0359 12.0023V12.0208C39.0359 12.0347 39.0313 12.0531 39.0267 12.067C39.0176 12.0901 39.0038 12.1085 38.9809 12.1177C38.9625 12.1316 38.9396 12.1362 38.9167 12.1362H37.6653C37.6332 12.1362 37.6057 12.127 37.5828 12.1039C37.5598 12.0855 37.5461 12.0531 37.5461 12.0254V12.0162L37.5736 11.7162L38.2246 3.97001C38.2246 3.95616 38.2246 3.94231 38.2291 3.92385C38.2337 3.89615 38.2474 3.87307 38.2704 3.8546C38.2933 3.83614 38.3162 3.8269 38.3437 3.8269H39.5951C39.6089 3.8269 39.6272 3.83152 39.6409 3.83614C39.6547 3.84075 39.6684 3.84998 39.6776 3.86384C39.6867 3.87307 39.696 3.88691 39.7051 3.90538C39.7097 3.91461 39.7097 3.93308 39.7097 3.94692Z" fill="white"/>
<path d="M45.1784 3.94229L45.1508 4.2562L44.4862 11.8592L44.4724 12.0116C44.4587 12.1454 44.4175 12.1501 44.367 12.1454H43.1706C43.1477 12.1454 43.1248 12.1408 43.1019 12.127C43.0836 12.1132 43.0652 12.0947 43.056 12.0716L41.8046 6.63823L41.3646 11.8269C41.3646 11.8269 41.3554 11.9792 41.3463 12.0346C41.3325 12.127 41.305 12.1408 41.2317 12.1408H40.0995C40.0674 12.1408 40.0399 12.127 40.0169 12.1039C39.9941 12.0808 39.9803 12.0531 39.9803 12.0208V12.0024L40.0032 11.7207L40.6724 4.05308L40.6862 3.89151C40.6999 3.82227 40.7183 3.82227 40.7916 3.82227H42.0338C42.1255 3.82227 42.1347 3.84073 42.153 3.94229L43.3769 9.25103L43.8078 4.06231L43.8215 3.89151C43.8307 3.82227 43.8811 3.82227 43.927 3.82227H45.0592C45.0729 3.82227 45.0913 3.82227 45.105 3.82688C45.1187 3.8315 45.1325 3.84073 45.1463 3.84996C45.1554 3.8592 45.1646 3.87304 45.1737 3.8869C45.1737 3.90997 45.1784 3.92382 45.1784 3.94229Z" fill="white"/>
<path d="M52.2236 10.4789V10.4927L52.2007 10.7743L52.0953 12.0022V12.0207C52.0953 12.0346 52.0907 12.053 52.0861 12.0669C52.0769 12.0854 52.0678 12.0992 52.0494 12.113C52.0357 12.1269 52.0174 12.1315 51.999 12.1362H50.6193C50.5918 12.1315 50.5689 12.1177 50.5505 12.0992C50.5322 12.0761 50.523 12.0484 50.523 12.0207V12.0022L50.5459 11.7253L50.6514 10.4927C50.6514 10.4835 50.6514 10.4696 50.656 10.4604C50.6605 10.4327 50.6743 10.405 50.6926 10.3866C50.7155 10.3681 50.743 10.3588 50.7706 10.3542H52.109C52.1411 10.3542 52.1732 10.3681 52.1915 10.3912C52.2099 10.4142 52.2236 10.4466 52.2236 10.4789Z" fill="white"/>
<path d="M61.8864 3.8269H58.8931L58.2147 11.73L58.1964 11.9562V12.0208C58.1964 12.0347 58.201 12.0531 58.2056 12.067C58.2102 12.0808 58.2193 12.0947 58.2331 12.1039C58.2423 12.1131 58.256 12.1224 58.2697 12.1316C58.2835 12.1362 58.3018 12.1409 58.3156 12.1409H59.5578C59.5807 12.1455 59.6036 12.1409 59.622 12.127C59.6403 12.1131 59.6587 12.0947 59.6632 12.0716C59.6724 12.0254 59.6816 11.9747 59.6816 11.9285L59.9382 8.90024H60.4333C60.4333 8.90024 61.3639 12.0485 61.373 12.0716C61.3822 12.0947 61.3959 12.1131 61.4143 12.1224C61.4326 12.1362 61.4555 12.1409 61.4784 12.1362H62.8077C62.8215 12.1362 62.8398 12.1362 62.8536 12.127C62.8674 12.1224 62.8811 12.1131 62.8948 12.0993C62.9086 12.0901 62.9132 12.0762 62.9223 12.0577C62.9269 12.0439 62.9315 12.0254 62.9315 12.0116C62.9086 11.8962 62.8811 11.7808 62.8398 11.67L61.9185 8.87251C62.2164 8.83097 62.4869 8.67865 62.6794 8.44319C62.8719 8.20774 62.9728 7.90769 62.9636 7.60304L63.1745 5.11947C63.257 4.24237 62.8261 3.8269 61.8864 3.8269ZM61.6755 5.35951L61.4968 7.42758C61.483 7.54304 61.4831 7.61224 61.396 7.71383C61.2951 7.79229 61.2263 7.78769 61.1071 7.78309H60.0345L60.2729 4.99021L61.3501 5.00406C61.4693 5.00868 61.5289 5.0179 61.6113 5.08253C61.648 5.11485 61.671 5.16101 61.6801 5.21179C61.6893 5.26257 61.6893 5.30874 61.6755 5.35951Z" fill="white"/>
<path d="M68.2623 5.13329C68.2623 5.13329 68.1753 6.23658 68.1616 6.28737C68.1434 6.36584 68.1019 6.38892 68.0473 6.38892H66.8047C66.791 6.38892 66.7728 6.38431 66.7592 6.37969C66.7456 6.37507 66.7313 6.36584 66.7222 6.352C66.7131 6.34276 66.704 6.32891 66.6949 6.31506C66.6903 6.30121 66.6858 6.28275 66.6858 6.2689L66.7501 5.29948C66.7547 5.19792 66.819 4.93941 66.4201 4.94402H65.8102C65.3886 4.95325 65.4386 5.17946 65.4204 5.29948L64.967 10.7006C64.953 10.7513 64.953 10.7975 64.9625 10.8483C64.9716 10.899 64.9898 10.9452 65.017 10.9821C65.095 11.0421 65.1957 11.0652 65.297 11.056H65.9063C66.007 11.0652 66.1038 11.0375 66.1863 10.9821C66.2551 10.9037 66.2915 10.8021 66.2915 10.6959L66.452 8.84939H65.9109C65.8836 8.84479 65.8608 8.83092 65.842 8.80786C65.8238 8.78479 65.8147 8.75706 65.8147 8.72939V8.70633L65.8375 8.43394L65.8836 7.9169C65.8836 7.9169 65.8836 7.9077 65.8881 7.87537C65.8927 7.84764 65.9063 7.81997 65.9245 7.80151C65.9479 7.78304 65.9752 7.77384 66.0024 7.77384H67.905C67.9369 7.77384 67.9648 7.78764 67.9875 7.81071C68.0103 7.83384 68.0239 7.86151 68.0239 7.89384V7.95843L68.0057 8.18469L67.7764 10.8483C67.703 11.7161 67.199 12.1501 66.2597 12.1501H64.7468C63.8116 12.1501 63.3808 11.7161 63.4541 10.8483L63.94 5.12406C64.0179 4.2562 64.5267 3.82227 65.462 3.82227H66.9697C67.905 3.82688 68.3357 4.24234 68.2623 5.13329Z" fill="white"/>
<path d="M32.2426 3.94233L32.2381 4.01157L32.2198 4.23778L32.1648 4.76865C32.1418 4.93945 32.1372 4.98561 31.9722 4.98561H30.7208L30.1204 11.947C30.1204 11.947 30.1157 12.0208 30.1112 12.0393C30.1066 12.067 30.0928 12.0947 30.0745 12.1131C30.0516 12.1316 30.0241 12.1409 29.9966 12.1409H28.7589C28.7452 12.1409 28.7268 12.1363 28.7131 12.1316C28.6993 12.127 28.6856 12.1178 28.6764 12.1039C28.6673 12.0947 28.6581 12.0809 28.6489 12.067C28.6443 12.0531 28.6398 12.0347 28.6398 12.0208V11.9562L28.6581 11.73L29.2356 4.98561H27.9384C27.8605 4.98561 27.8147 4.93483 27.8284 4.84712L27.8513 4.584L27.888 4.17777V4.15468L27.911 3.89617C27.9201 3.84078 27.9522 3.83154 28.0164 3.83154H32.1189C32.151 3.83154 32.1785 3.84078 32.2014 3.86385C32.2243 3.88232 32.2381 3.91463 32.2426 3.94233Z" fill="white"/>
<path d="M56.5094 3.8269H54.9326C53.9975 3.8269 53.4887 4.26084 53.4154 5.1287L52.9249 10.8391C52.8561 11.7069 53.287 12.1409 54.2221 12.1409H55.7944C56.734 12.1409 57.2383 11.7069 57.3116 10.8391L57.8021 5.1287C57.8754 4.24237 57.4492 3.8269 56.5094 3.8269ZM56.3032 5.34567L55.8539 10.576C55.8356 10.7283 55.8448 10.9914 55.4552 10.9914H54.7722C54.5109 10.9914 54.4101 10.8391 54.4284 10.6359L54.8776 5.38721L54.8868 5.2718C54.9005 5.15178 55.0059 4.99021 55.1664 4.99021H55.9731C56.2482 4.98559 56.3353 5.07792 56.3032 5.34567Z" fill="white"/>
</g>
<defs>
<clipPath id="clip0_1_199">
<rect width="76" height="16" fill="white"/>
</clipPath>
</defs>
</svg>
