<svg width="12" height="12" viewBox="0 0 12 12" fill="none" xmlns="http://www.w3.org/2000/svg">
<path d="M9.66785 2.33685C6.67017 -0.656788 2.83376 -0.0670815 1.32371 0.325511C0.839776 0.4512 0.460422 0.82941 0.333262 1.31255C-0.0647486 2.82555 -0.66651 6.66829 2.33215 9.66324C4.19488 11.5236 6.38148 12.0002 8.13276 12C9.19947 12 10.1046 11.8232 10.6763 11.6747C11.1602 11.5489 11.5396 11.1708 11.6667 10.6877C12.0647 9.17438 12.6665 5.33164 9.66785 2.33685ZM0.808027 1.43693C0.890018 1.12524 1.13501 0.881058 1.4471 0.79999C1.98995 0.658937 2.85012 0.49059 3.86299 0.49059C3.86888 0.49059 3.87493 0.490917 3.88082 0.490917L0.49168 3.87568C0.492499 2.85367 0.664173 1.98414 0.808027 1.43693ZM2.67926 9.31641C1.16643 7.80553 0.630788 6.05946 0.516556 4.54433L4.54854 0.517558C6.06235 0.634911 7.8079 1.17264 9.32073 2.68336C10.8336 4.19423 11.3692 5.94031 11.4834 7.4556L7.45162 11.4822C5.93765 11.365 4.1921 10.8273 2.67926 9.31641ZM11.192 10.563C11.11 10.8747 10.865 11.1187 10.5527 11.1998C10.0069 11.3416 9.13957 11.5103 8.1195 11.5085L11.5082 8.12425C11.5075 9.14643 11.3358 10.0158 11.192 10.563Z" fill="black"/>
<path d="M8.63163 6.6591C8.53573 6.56332 8.38042 6.56332 8.28452 6.6591L7.64561 7.29718L6.90359 6.55613L7.55331 5.90725C7.64921 5.81164 7.64921 5.65637 7.55331 5.56059C7.4574 5.46481 7.3021 5.46481 7.20619 5.56059L6.55648 6.20946L5.81447 5.46841L6.46402 4.81953C6.55992 4.72375 6.55992 4.56848 6.46402 4.47287C6.36811 4.37709 6.2128 4.37709 6.1169 4.47287L5.46735 5.12174L4.72534 4.38068L5.37505 3.73198C5.47095 3.63636 5.47095 3.48109 5.37505 3.38531C5.27915 3.28953 5.12384 3.28953 5.02794 3.38531L4.37822 4.03402L3.80183 3.45837C3.70593 3.36259 3.55062 3.36259 3.45472 3.45837C3.35881 3.55398 3.35881 3.70942 3.45472 3.80503L4.03111 4.38068L3.40316 5.00782C3.30726 5.10344 3.30726 5.25871 3.40316 5.35449C3.45112 5.40237 3.51396 5.42624 3.5768 5.42624C3.63965 5.42624 3.70249 5.40237 3.75044 5.35449L4.37839 4.72735L5.1204 5.46841L4.49246 6.09554C4.39655 6.19132 4.39655 6.34659 4.49246 6.44221C4.54041 6.4901 4.60325 6.51396 4.66609 6.51396C4.72894 6.51396 4.79178 6.4901 4.83973 6.44221L5.46768 5.81507L6.20969 6.55613L5.58175 7.18326C5.48585 7.27904 5.48585 7.43415 5.58175 7.52993C5.6297 7.57782 5.69254 7.60168 5.75539 7.60168C5.81823 7.60168 5.88107 7.57782 5.92902 7.52993L6.55697 6.90279L7.29899 7.64385L6.66007 8.28193C6.56417 8.37771 6.56417 8.53282 6.66007 8.6286C6.70803 8.67649 6.77087 8.70035 6.83371 8.70035C6.89656 8.70035 6.9594 8.67649 7.00735 8.6286L7.64626 7.99051L8.27617 8.61961C8.32412 8.6675 8.38697 8.69136 8.44981 8.69136C8.51266 8.69136 8.5755 8.6675 8.62345 8.61961C8.71935 8.52383 8.71935 8.36872 8.62345 8.27294L7.99354 7.64385L8.63245 7.00576C8.72754 6.90998 8.72754 6.75471 8.63163 6.6591Z" fill="black"/>
</svg>
