<svg width="13" height="13" viewBox="0 0 13 13" fill="none" xmlns="http://www.w3.org/2000/svg">
<path d="M10.1551 8.54744C9.77629 8.91167 9.31052 9.17287 8.80218 9.30617L3.68124 4.18523C3.81445 3.67687 4.07561 3.2111 4.43985 2.83228C6.28597 0.998811 8.66272 0.518402 10.5724 2.42763C12.469 4.32433 12.0012 6.71408 10.1551 8.54744ZM3.54545 6.20827C3.64266 6.65889 3.63721 7.12562 3.5295 7.57386C3.43462 7.8978 3.28955 8.20486 3.09955 8.48386C2.22713 9.50838 1.24091 10.0648 1.24091 10.4315C1.51878 11.0127 1.98732 11.4813 2.56856 11.7591C2.93492 11.7591 3.47856 10.8109 4.52837 9.91303C4.814 9.7017 5.13516 9.54324 5.47666 9.44515C5.90268 9.35957 6.34178 9.36279 6.7665 9.4546L3.54545 6.20827Z" fill="black"/>
</svg>
