<svg width="14" height="14" viewBox="0 0 14 14" fill="none" xmlns="http://www.w3.org/2000/svg">
<g clip-path="url(#clip0_1_269)">
<path d="M13.6514 12.6118L11.4257 10.36C11.4256 10.3598 11.4254 10.3595 11.4253 10.3592C11.4251 10.359 11.4248 10.359 11.4246 10.3588L10.7843 9.71105C10.763 9.69102 8.64139 7.68925 8.73146 6.17054C8.76287 5.88323 8.76172 5.583 8.72429 5.27305C8.59593 4.20766 8.06758 3.15765 7.23604 2.31646C5.5057 0.565724 2.98111 0.271444 1.60832 1.66042C0.644263 2.6357 0.471875 4.2258 1.15039 5.74479C0.788972 6.16154 0.589478 6.68916 0.589478 7.2487C0.589478 7.85931 0.824683 8.43351 1.25135 8.86521C1.67802 9.2969 2.24552 9.53488 2.84903 9.53488C3.45253 9.53488 4.02003 9.29705 4.44685 8.86521C4.48829 8.82327 4.52587 8.77901 4.56345 8.73475C4.93561 8.8372 5.30363 8.8906 5.65815 8.89046C5.80688 8.89046 5.95216 8.87841 6.09558 8.86071C7.59085 8.80716 9.54564 10.9231 9.57131 10.9509L10.2061 11.593L12.4324 13.8455C12.4727 13.8863 12.5274 13.9092 12.5845 13.9092C12.6416 13.9092 12.6962 13.8863 12.7367 13.8453L13.6517 12.9195C13.7355 12.8345 13.7355 12.6967 13.6514 12.6118ZM2.76943 5.40161C2.65986 5.79297 2.24954 6.88128 1.02346 7.17324C1.04182 6.7073 1.22783 6.27154 1.55568 5.93982C1.88225 5.60941 2.31092 5.42149 2.76943 5.40161ZM1.05473 7.61103C2.63849 7.27351 3.10704 5.82446 3.20556 5.43281C3.55837 5.5029 3.88278 5.67688 4.14266 5.93982C4.40784 6.20812 4.57406 6.53926 4.64204 6.88622C3.05942 7.22446 2.59116 8.67279 2.49278 9.0643C2.13997 8.99421 1.81556 8.82022 1.55568 8.55729C1.29624 8.29479 1.12428 7.96728 1.05473 7.61103ZM2.92776 9.09549C3.03461 8.70181 3.4369 7.61727 4.67402 7.32386C4.65609 7.77239 4.48041 8.2157 4.14266 8.55729C3.81581 8.88799 3.3867 9.0759 2.92776 9.09549ZM4.82504 8.35413C5.29947 7.48522 5.17455 6.36832 4.44685 5.63204C4.02003 5.2002 3.45253 4.96237 2.84903 4.96237C2.34821 4.96237 1.87364 5.12837 1.48225 5.43078C0.946015 4.12132 1.10478 2.78516 1.91236 1.96805C3.11722 0.748996 5.36917 1.04313 6.93171 2.62409C7.69541 3.39694 8.1803 4.35639 8.29719 5.32557C8.41149 6.27502 8.15678 7.11926 7.58024 7.7026C7.18498 8.10252 6.66394 8.34673 6.07894 8.42553C6.06331 8.42611 6.04739 8.42538 6.03176 8.4264C6.01354 8.42756 5.99633 8.43162 5.9797 8.43699C5.61326 8.47443 5.22374 8.44758 4.82504 8.35413ZM7.04113 8.59559C7.35436 8.45136 7.64019 8.25793 7.88457 8.01052C8.12953 7.76282 8.32401 7.47594 8.46699 7.15931C8.96709 8.59066 10.4155 9.95889 10.4862 10.0248L10.9688 10.5131L10.3578 11.1312L9.8811 10.649C9.81111 10.5723 8.45825 9.10435 7.04113 8.59559ZM12.5842 13.3836L10.662 11.439L11.273 10.8208L13.1949 12.7656L12.5842 13.3836Z" fill="black"/>
</g>
<defs>
<clipPath id="clip0_1_269">
<rect width="14" height="14" fill="white"/>
</clipPath>
</defs>
</svg>
