<svg width="13" height="12" viewBox="0 0 13 12" fill="none" xmlns="http://www.w3.org/2000/svg">
<path d="M6.32544 0C3.01689 0 0.325439 2.6916 0.325439 6C0.325439 9.3084 3.01704 12 6.32544 12C9.63383 12 12.3254 9.3084 12.3254 6C12.3254 2.6916 9.63399 0 6.32544 0ZM11.0095 3.03484C8.38725 3.16769 6.59749 5.25429 6.19984 5.76226C5.83953 5.72705 4.81014 5.58664 3.7357 5.08547C4.05052 4.33371 5.43962 1.54069 8.83417 1.05539C9.72437 1.50911 10.4763 2.19557 11.0095 3.03484ZM6.32544 0.453412C6.93785 0.453412 7.52668 0.554674 8.07803 0.738759C5.00314 1.49445 3.67948 4.06544 3.33111 4.87962C2.66096 4.50843 2.00533 3.98413 1.51459 3.24477C2.47265 1.57863 4.26952 0.453412 6.32544 0.453412ZM0.778851 6C0.778851 5.17993 0.959158 4.40157 1.28002 3.70045C2.86409 5.85687 5.67676 6.17819 6.22403 6.22051C6.36035 6.55135 6.70419 7.48311 6.78051 8.62193C5.86417 8.74496 2.8984 8.90758 0.791245 6.35336C0.78399 6.23623 0.778851 6.11864 0.778851 6ZM6.20438 11.5436C3.59333 11.4872 1.42118 9.61913 0.899006 7.14804C2.56922 8.81659 4.5987 9.12975 5.88593 9.12975C6.26166 9.12975 6.57376 9.103 6.79563 9.07564C6.79472 9.86896 6.64419 10.7311 6.20438 11.5436ZM9.37554 10.6293C8.60293 11.14 7.6958 11.462 6.71961 11.531C7.88155 9.11025 6.82994 6.46777 6.6129 5.97446C6.89039 5.63803 7.61268 4.83927 8.6519 4.23472C9.16909 4.97212 10.7062 7.55838 9.37554 10.6293ZM10.0554 10.1017C10.9572 7.20804 9.60028 4.82083 9.05317 4.02025C9.69822 3.70483 10.4432 3.4819 11.2642 3.48009C11.6518 4.23683 11.8722 5.09287 11.8722 6C11.8722 7.62352 11.1709 9.08637 10.0554 10.1017Z" fill="black"/>
</svg>
